<svg xmlns="http://www.w3.org/2000/svg" viewBox="0 0 600 240" width="600" height="240" aria-labelledby="titleDesc">
  <title id="titleDesc">Fatto logo</title>
  <defs>
    <style>
      .mark{fill:#000000}
      .word{fill:#000000;font-family: 'Segoe UI', 'Montserrat', Arial, sans-serif; font-weight:800; font-size:64px; letter-spacing:6px}
    </style>
  </defs>
  <!-- mark on the left: stylized flag/flowing shape -->
  <g transform="translate(24,10)">
    <path class="mark" d="M58 8c26-4 64-10 90 6 18 12 20 36 40 46 28 14 72 4 104 12 6 2 10 8 10 14v48c0 8-6 14-14 14-46 0-86 4-100-24-10-22-6-38-24-50-26-18-62-6-86-20-20-12-14-44-6-66z"/>
    <path class="mark" d="M10 92c36-8 70 6 96 14 24 8 30 26 32 46 2 22 12 34 38 38 18 3 48 6 64 6 8 0 14 6 14 14v12c0 6-4 10-10 12-34 6-82 0-106-18-20-16-8-40-30-56-26-18-62-6-86-20-12-8-18-26-12-50z" opacity="0.98"/>
  </g>
  <!-- word to the right -->
  <g transform="translate(220,128)">
    <text class="word" x="0" y="0">FATTO</text>
  </g>
</svg>
